<svg width="512" height="512" viewBox="0 0 512 512" fill="none" xmlns="http://www.w3.org/2000/svg">
  <defs>
    <linearGradient id="bg" x1="88" y1="84" x2="430" y2="432" gradientUnits="userSpaceOnUse">
      <stop offset="0" stop-color="#0A2238"/>
      <stop offset="1" stop-color="#13395B"/>
    </linearGradient>
    <linearGradient id="teal" x1="118" y1="120" x2="393" y2="392" gradientUnits="userSpaceOnUse">
      <stop offset="0" stop-color="#1AD6C0"/>
      <stop offset="1" stop-color="#7EF3E2"/>
    </linearGradient>
    <linearGradient id="blue" x1="168" y1="150" x2="356" y2="344" gradientUnits="userSpaceOnUse">
      <stop offset="0" stop-color="#7DB9FF"/>
      <stop offset="1" stop-color="#C9E0FF"/>
    </linearGradient>
    <linearGradient id="gold" x1="295" y1="128" x2="369" y2="202" gradientUnits="userSpaceOnUse">
      <stop offset="0" stop-color="#FFB966"/>
      <stop offset="1" stop-color="#FFD9A8"/>
    </linearGradient>
    <filter id="shadow" x="44" y="44" width="424" height="424" filterUnits="userSpaceOnUse" color-interpolation-filters="sRGB">
      <feFlood flood-opacity="0" result="BackgroundImageFix"/>
      <feColorMatrix in="SourceAlpha" type="matrix" values="0 0 0 0 0 0 0 0 0 0 0 0 0 0 0 0 0 0 127 0" result="hardAlpha"/>
      <feOffset dy="22"/>
      <feGaussianBlur stdDeviation="22"/>
      <feColorMatrix type="matrix" values="0 0 0 0 0.0117647 0 0 0 0 0.0627451 0 0 0 0 0.121569 0 0 0 0.28 0"/>
      <feBlend mode="normal" in2="BackgroundImageFix" result="effect1_dropShadow_1_2"/>
      <feBlend mode="normal" in="SourceGraphic" in2="effect1_dropShadow_1_2" result="shape"/>
    </filter>
  </defs>

  <g filter="url(#shadow)">
    <rect x="88" y="84" width="336" height="336" rx="92" fill="url(#bg)"/>
    <path d="M165 179C165 162.431 178.431 149 195 149H258.574C266.53 149 274.161 152.161 279.787 157.787L324.213 202.213C329.839 207.839 333 215.47 333 223.426V317C333 333.569 319.569 347 303 347H195C178.431 347 165 333.569 165 317V179Z" fill="rgba(255,255,255,0.04)"/>
    <path d="M205 176H256.147C263.177 176 269.919 178.793 274.893 183.767L298.233 207.107C303.207 212.081 306 218.823 306 225.853V281" stroke="url(#teal)" stroke-width="26" stroke-linecap="round"/>
    <path d="M307 283L256.5 333.5L206 283" stroke="url(#blue)" stroke-width="26" stroke-linecap="round" stroke-linejoin="round"/>
    <circle cx="204" cy="176" r="20" fill="url(#teal)"/>
    <circle cx="307" cy="283" r="20" fill="url(#blue)"/>
    <circle cx="205" cy="283" r="20" fill="#D9F7F2"/>
    <circle cx="307" cy="176" r="20" fill="url(#gold)"/>
  </g>
</svg>
